<svg width="31" height="31" viewBox="0 0 31 31" fill="none" xmlns="http://www.w3.org/2000/svg">
<path d="M15.4167 0C6.91592 0 0 6.91592 0 15.4167V21.8038C0 23.3825 1.38287 24.6667 3.08333 24.6667H4.625C5.03388 24.6667 5.426 24.5042 5.71512 24.2151C6.00424 23.926 6.16667 23.5339 6.16667 23.125V15.1962C6.16667 14.7873 6.00424 14.3952 5.71512 14.1061C5.426 13.817 5.03388 13.6545 4.625 13.6545H3.22517C4.08233 7.68829 9.21608 3.08333 15.4167 3.08333C21.6173 3.08333 26.751 7.68829 27.6082 13.6545H26.2083C25.7995 13.6545 25.4073 13.817 25.1182 14.1061C24.8291 14.3952 24.6667 14.7873 24.6667 15.1962V24.6667C24.6667 26.3671 23.2838 27.75 21.5833 27.75H18.5V26.2083H12.3333V30.8333H21.5833C24.9843 30.8333 27.75 28.0676 27.75 24.6667C29.4505 24.6667 30.8333 23.3825 30.8333 21.8038V15.4167C30.8333 6.91592 23.9174 0 15.4167 0Z" fill="white"/>
</svg>
