<svg preserveAspectRatio="none" overflow="visible" style="display: block;" width="42.0028" height="48" viewBox="0 0 42.0028 48" fill="none" xmlns="http://www.w3.org/2000/svg">
<path id="Vector" d="M12.0028 3.75C12.0028 1.67812 13.6809 0 15.7528 0C17.8247 0 19.5028 1.67812 19.5028 3.75V17.6437C20.2997 16.9312 21.3497 16.5 22.5028 16.5C24.434 16.5 26.084 17.7187 26.7215 19.425C27.5465 18.5531 28.709 18 30.0028 18C32.3747 18 34.3153 19.8281 34.4934 22.1531C35.2903 21.4313 36.3497 21 37.5028 21C39.9872 21 42.0028 23.0156 42.0028 25.5V36C42.0028 42.6281 36.6309 48 30.0028 48H22.0059C21.5372 48 21.0778 47.9719 20.6278 47.9062C15.4434 47.3813 10.6715 44.7188 7.50278 40.5L0.752782 31.5C-0.494093 29.8406 -0.156593 27.4969 1.50278 26.25C3.16216 25.0031 5.50591 25.3406 6.75278 27L12.0028 34.0031V3.75ZM22.5028 28.5C22.5028 27.675 21.8278 27 21.0028 27C20.1778 27 19.5028 27.675 19.5028 28.5V37.5C19.5028 38.325 20.1778 39 21.0028 39C21.8278 39 22.5028 38.325 22.5028 37.5V28.5ZM27.0028 27C26.1778 27 25.5028 27.675 25.5028 28.5V37.5C25.5028 38.325 26.1778 39 27.0028 39C27.8278 39 28.5028 38.325 28.5028 37.5V28.5C28.5028 27.675 27.8278 27 27.0028 27ZM34.5028 28.5C34.5028 27.675 33.8278 27 33.0028 27C32.1778 27 31.5028 27.675 31.5028 28.5V37.5C31.5028 38.325 32.1778 39 33.0028 39C33.8278 39 34.5028 38.325 34.5028 37.5V28.5Z" fill="white"/>
</svg>
